<?xml version="1.0" encoding="utf-8"?>
<!-- Generator: Adobe Illustrator 16.0.0, SVG Export Plug-In . SVG Version: 6.00 Build 0)  -->
<!DOCTYPE svg PUBLIC "-//W3C//DTD SVG 1.1//EN" "http://www.w3.org/Graphics/SVG/1.1/DTD/svg11.dtd">
<svg version="1.1" id="Layer_1" xmlns="http://www.w3.org/2000/svg" xmlns:xlink="http://www.w3.org/1999/xlink" x="0px" y="0px"
	 width="299.03px" height="267.027px" viewBox="0 0 299.03 267.027" enable-background="new 0 0 299.03 267.027"
	 xml:space="preserve">
<circle fill="#F15B26" cx="134.622" cy="126.59" r="80.792"/>
<g>
	<path fill-rule="evenodd" clip-rule="evenodd" fill="#F1F2F2" d="M87.345,184.883c-4.258-4.272-8.654-8.682-13.2-13.243
		c9.396-9.353,18.854-18.769,28.245-28.116c4.444,4.48,8.824,8.896,13.102,13.209C106.232,165.994,96.769,175.457,87.345,184.883z"
		/>
</g>
<circle fill-rule="evenodd" clip-rule="evenodd" fill="#FFFFFF" cx="150.416" cy="109.23" r="50.485"/>
<polygon fill="#F15B26" points="180.798,110.258 172.966,110.258 172.966,136.308 151.451,136.308 151.451,122.875 137.904,122.875 
	137.904,136.308 127.291,136.308 127.293,110.258 120.033,110.258 150.125,80.165 "/>
<rect x="1149.646" y="62.172" fill-rule="evenodd" clip-rule="evenodd" fill="#F15B26" width="134.877" height="101.507"/>
<line fill="#010101" x1="1175.721" y1="170.386" x2="1175.721" y2="176.419"/>
<path fill="#F15B26" stroke="#F15B26" stroke-width="14" stroke-miterlimit="10" d="M1169.81,205.138
	c4.029,0,15.735-14.158,15.936-14.338l16.484-21.16h64.357c12.282,0,24.384-12.947,24.384-25.959V76.726
	c0-12.401-11.216-21.011-24.384-21.011h-101.15c-12.552,0-20.771,8.217-20.771,21.011v66.932c0,13.496,9.029,24.889,21.675,24.889
	v12.379C1166.34,188.526,1167.787,205.138,1169.81,205.138z M1266.587,57.906c11.957,0,22.578,7.844,22.578,18.819v66.932
	c0,11.875-11.234,23.795-22.578,23.795h-64.882l-16.594,23.02c1.247,1.836-11.849,14.666-15.302,14.666
	c-1.553,0-1.683-18.365-1.683-24.213v-13.473h-2.69c-11.885,0-18.967-12.818-18.967-23.771V76.726
	c0-11.546,7.463-18.819,18.967-18.819H1266.587z"/>
<path fill="#FFFFFF" d="M1245.539,107.665c0-1.297,1.114-2.355,2.562-2.561c0,0,0,0,0.02,0l6.463-0.742l2.841-4.882
	c0.446-0.979,1.541-1.674,2.859-1.674c1.355,0,2.489,0.742,2.896,1.787l2.732,4.786l6.332,0.709v0.016
	c1.56,0.127,2.784,1.232,2.784,2.592c0,0.852-0.481,1.609-1.225,2.086l-4.383,3.758l1.058,4.977c0,0,0,0-0.019,0
	c0.113,0.283,0.187,0.568,0.187,0.883c0,1.438-1.374,2.605-3.064,2.605c-0.574,0-1.114-0.143-1.56-0.365l-5.773-2.43l-5.536,2.354
	c-0.482,0.285-1.076,0.441-1.727,0.441c-1.689,0-3.064-1.168-3.064-2.605c0-0.08,0-0.143,0.02-0.221c0,0-0.02,0-0.02-0.018
	l1.171-5.621l-4.495-3.855c0,0,0-0.014,0.02-0.014C1245.947,109.149,1245.539,108.454,1245.539,107.665z"/>
<path fill="#FFFFFF" d="M1252.967,122.747c0.797,0,1.577-0.205,2.247-0.584l5.013-2.133l5.348,2.258
	c0.558,0.285,1.264,0.459,1.97,0.459c2.189,0,3.992-1.516,3.992-3.395c0-0.348-0.055-0.68-0.187-1.025l0,0l-0.984-4.582l4.05-3.459
	c0.909-0.568,1.503-1.562,1.503-2.637c0-1.518-1.15-2.799-2.785-3.24v-0.062l-6.646-0.742l-2.508-4.39
	c-0.502-1.297-2.024-2.229-3.731-2.229c-1.675,0-3.121,0.854-3.717,2.18l-2.58,4.454l-6.185,0.727
	c-1.856,0.316-3.175,1.689-3.175,3.318c0,0.854,0.37,1.658,1.04,2.289v0.018l4.438,3.807l-1.17,5.668l0.074,0.062
	C1249.067,121.312,1250.831,122.747,1252.967,122.747z M1260.227,118.278l-5.96,2.543c-1.709,0.963-3.437-0.08-3.437-1.438
	l0.037-0.348l1.209-5.781l-4.311-3.68l0.037-0.047l-0.612-0.475c-0.463-0.348-0.742-0.854-0.742-1.373
	c0-0.885,0.742-1.645,1.782-1.785l0.261-0.033l6.685-0.758l3.046-5.261c0.351-0.773,1.133-1.232,2.025-1.232
	c0.907,0,1.725,0.508,2.022,1.232l2.99,5.261l6.87,0.791c1.097,0.094,1.931,0.867,1.931,1.801c0,0.566-0.316,1.105-0.854,1.453
	l-4.827,4.123l1.003,4.658l-0.167,0.031l0.353,0.82c0.093,0.207,0.13,0.412,0.13,0.617c0,0.994-0.967,1.816-2.135,1.816
	c-0.391,0-0.762-0.096-1.097-0.254L1260.227,118.278z"/>
<path fill="#FFFFFF" d="M1166.523,122.747c0.798,0,1.578-0.205,2.246-0.584l5.014-2.133l5.348,2.258
	c0.559,0.285,1.264,0.459,1.969,0.459c2.193,0,3.996-1.516,3.996-3.395c0-0.348-0.057-0.68-0.188-1.012v-0.014l-0.983-4.566
	l4.046-3.459c0.912-0.568,1.506-1.564,1.506-2.637c0-1.518-1.149-2.795-2.787-3.238v-0.064l-6.648-0.742l-2.506-4.392
	c-0.5-1.295-2.021-2.227-3.73-2.227c-1.637,0-3.141,0.869-3.719,2.18l-2.578,4.438l-6.278,0.742c-1.8,0.348-3.079,1.705-3.079,3.303
	c0,0.854,0.369,1.658,1.037,2.289v0.018l4.439,3.807l-1.188,5.668l0.075,0.062C1162.625,121.312,1164.367,122.747,1166.523,122.747z
	 M1173.783,118.278l-5.957,2.543c-1.711,0.963-3.438-0.08-3.438-1.438l0.02-0.254l1.224-5.875l-4.309-3.695l0.038-0.064
	l-0.611-0.457c-0.465-0.346-0.744-0.852-0.744-1.373c0-0.885,0.744-1.645,1.782-1.787l0.26-0.029l6.686-0.76l3.045-5.261
	c0.354-0.773,1.135-1.23,2.026-1.23c0.91,0,1.725,0.504,2.021,1.23l2.992,5.261l6.869,0.789c1.097,0.096,1.931,0.869,1.931,1.803
	c0,0.568-0.314,1.104-0.854,1.453l-4.829,4.121l1.006,4.66l-0.167,0.031l0.352,0.822c0.095,0.205,0.128,0.41,0.128,0.615
	c0,0.994-0.965,1.818-2.135,1.818c-0.391,0-0.76-0.082-1.096-0.256L1173.783,118.278z"/>
<path fill="#FFFFFF" stroke="#00AEEF" stroke-miterlimit="10" d="M1217.089,97.791v21.388l5.738,2.432
	c0.445,0.221,0.983,0.361,1.56,0.361c1.689,0,3.064-1.166,3.064-2.604c0-0.301-0.075-0.6-0.186-0.887l-1.06-4.973l4.383-3.76
	c0.743-0.475,1.226-1.23,1.226-2.084c0-1.344-1.207-2.465-2.768-2.592l-6.332-0.711l-2.729-4.784
	C1219.578,98.549,1218.445,97.791,1217.089,97.791z"/>
<path fill="#FFFFFF" d="M1209.792,122.763c0.777,0,1.559-0.205,2.246-0.584l5.014-2.131l5.367,2.273
	c0.557,0.285,1.262,0.441,1.968,0.441c2.21,0,3.992-1.516,3.992-3.395c0-0.363-0.073-0.742-0.241-1.137l-0.947-4.453l4.048-3.461
	c0.893-0.568,1.486-1.58,1.486-2.637c0-1.754-1.56-3.207-3.602-3.381l-5.813-0.648l-2.507-4.407
	c-0.501-1.295-2.024-2.227-3.732-2.227c-1.633,0-3.138,0.869-3.734,2.18l-2.58,4.454l-5.998,0.695
	c-1.969,0.27-3.358,1.674-3.358,3.35c0,0.852,0.369,1.658,1.037,2.307l0,0l0.261,0.252l4.161,3.57l-1.17,5.621l0.073,0.062
	C1205.854,121.28,1207.618,122.763,1209.792,122.763z M1217.089,118.294l-0.445,0.156l-5.535,2.355
	c-1.818,1.01-3.453-0.08-3.453-1.438c0.018-0.08,0.018-0.158,0.018-0.221v-0.031l1.228-5.877l-4.867-4.186
	c-0.481-0.361-0.741-0.867-0.741-1.389c0-0.885,0.741-1.629,1.781-1.787l6.946-0.789l3.045-5.276
	c0.353-0.758,1.15-1.232,2.024-1.232c0.909,0,1.726,0.506,2.024,1.248l2.989,5.261l6.833,0.773c1.115,0.096,1.969,0.885,1.969,1.803
	c0,0.584-0.315,1.105-0.854,1.453l-4.829,4.121l1.152,5.387c0.129,0.348,0.167,0.553,0.167,0.742c0,0.994-0.966,1.816-2.136,1.816
	c-0.483,0-0.854-0.143-1.096-0.252L1217.089,118.294z"/>
<polygon fill="#FFFFFF" points="1218.017,119.241 1218.017,97.129 1216.162,97.129 1216.162,119.179 "/>
<ellipse transform="matrix(0.9575 0.2884 -0.2884 0.9575 100.2257 -333.4292)" fill-rule="evenodd" clip-rule="evenodd" fill="#F15B26" cx="1181.606" cy="173.401" rx="13.794" ry="27.892"/>
<circle fill="#F15B26" cx="2326.189" cy="129.427" r="80.792"/>
<path fill="#FFFFFF" d="M2277.597,188.755c-4.579-0.004-8.28-3.707-8.283-8.281l0,0v-86.13c0.003-4.576,3.704-8.277,8.283-8.281l0,0
	h44.408l-11.835,11.832h-29.025v79.028l75.546,0.002v-15.889l11.833-11.832l-0.002,31.27c-0.003,4.572-3.705,8.277-8.28,8.281l0,0
	H2277.597L2277.597,188.755z"/>
<path fill="#FFFFFF" d="M2356.3,85.02V70.165l38.451,38.451l-38.614,38.617v-15.447c0,0-19.175-3.805-38.892,8.488
	c-10.791,6.684-18.076,15.477-22.565,22.404c0,0,1.459-23.992,15.262-45.846C2327.198,89.508,2356.3,85.02,2356.3,85.02z"/>
</svg>
