<?xml version="1.0" encoding="utf-8"?>
<!-- Generator: Adobe Illustrator 16.0.0, SVG Export Plug-In . SVG Version: 6.00 Build 0)  -->
<!DOCTYPE svg PUBLIC "-//W3C//DTD SVG 1.1//EN" "http://www.w3.org/Graphics/SVG/1.1/DTD/svg11.dtd">
<svg version="1.1" id="Layer_1" xmlns="http://www.w3.org/2000/svg" xmlns:xlink="http://www.w3.org/1999/xlink" x="0px" y="0px"
	 width="327.033px" height="324.032px" viewBox="0 0 327.033 324.032" enable-background="new 0 0 327.033 324.032"
	 xml:space="preserve">
<rect x="102.541" y="113.176" fill-rule="evenodd" clip-rule="evenodd" fill="#F15B26" width="134.877" height="101.507"/>
<line fill="#010101" x1="128.616" y1="221.39" x2="128.616" y2="227.423"/>
<path fill="#F15B26" stroke="#F15B26" stroke-width="14" stroke-miterlimit="10" d="M122.705,256.142
	c4.029,0,15.735-14.158,15.936-14.338l16.484-21.16h64.357c12.282,0,24.384-12.947,24.384-25.959V127.73
	c0-12.401-11.216-21.011-24.384-21.011h-101.15c-12.552,0-20.771,8.217-20.771,21.011v66.932c0,13.496,9.029,24.889,21.675,24.889
	v12.379C119.235,239.531,120.682,256.142,122.705,256.142z M219.482,108.911c11.957,0,22.578,7.844,22.578,18.819v66.932
	c0,11.875-11.234,23.795-22.578,23.795h-64.882l-16.594,23.02c1.247,1.836-11.849,14.666-15.302,14.666
	c-1.553,0-1.683-18.365-1.683-24.213v-13.473h-2.69c-11.885,0-18.967-12.818-18.967-23.771V127.73
	c0-11.546,7.463-18.819,18.967-18.819H219.482z"/>
<path fill="#FFFFFF" d="M198.434,158.669c0-1.297,1.114-2.355,2.562-2.561c0,0,0,0,0.02,0l6.463-0.742l2.841-4.882
	c0.446-0.979,1.541-1.674,2.859-1.674c1.355,0,2.489,0.742,2.896,1.787l2.732,4.786l6.332,0.709v0.016
	c1.56,0.127,2.784,1.232,2.784,2.592c0,0.852-0.481,1.609-1.225,2.086l-4.383,3.758l1.058,4.977c0,0,0,0-0.019,0
	c0.113,0.283,0.187,0.568,0.187,0.883c0,1.438-1.374,2.605-3.064,2.605c-0.574,0-1.114-0.143-1.56-0.365l-5.773-2.43l-5.536,2.354
	c-0.482,0.285-1.076,0.441-1.727,0.441c-1.689,0-3.064-1.168-3.064-2.605c0-0.08,0-0.143,0.02-0.221c0,0-0.02,0-0.02-0.018
	l1.171-5.621l-4.495-3.855c0,0,0-0.014,0.02-0.014C198.842,160.154,198.434,159.458,198.434,158.669z"/>
<path fill="#FFFFFF" d="M205.862,173.751c0.797,0,1.577-0.205,2.247-0.584l5.013-2.133l5.348,2.258
	c0.558,0.285,1.264,0.459,1.97,0.459c2.189,0,3.992-1.516,3.992-3.395c0-0.348-0.055-0.68-0.187-1.025l0,0l-0.984-4.582l4.05-3.459
	c0.909-0.568,1.503-1.562,1.503-2.637c0-1.518-1.15-2.799-2.785-3.24v-0.062l-6.646-0.742l-2.508-4.39
	c-0.502-1.297-2.024-2.229-3.731-2.229c-1.675,0-3.121,0.854-3.717,2.18l-2.58,4.454l-6.185,0.727
	c-1.856,0.316-3.175,1.689-3.175,3.318c0,0.854,0.37,1.658,1.04,2.289v0.018l4.438,3.807l-1.17,5.668l0.074,0.062
	C201.962,172.316,203.726,173.751,205.862,173.751z M213.122,169.283l-5.96,2.543c-1.709,0.963-3.437-0.08-3.437-1.438l0.037-0.348
	l1.209-5.781l-4.311-3.68l0.037-0.047l-0.612-0.475c-0.463-0.348-0.742-0.854-0.742-1.373c0-0.885,0.742-1.645,1.782-1.785
	l0.261-0.033l6.685-0.758l3.046-5.261c0.351-0.773,1.133-1.232,2.025-1.232c0.907,0,1.725,0.508,2.022,1.232l2.99,5.261l6.87,0.791
	c1.097,0.094,1.931,0.867,1.931,1.801c0,0.566-0.316,1.105-0.854,1.453l-4.827,4.123l1.003,4.658l-0.167,0.031l0.353,0.82
	c0.093,0.207,0.13,0.412,0.13,0.617c0,0.994-0.967,1.816-2.135,1.816c-0.391,0-0.762-0.096-1.097-0.254L213.122,169.283z"/>
<path fill="#FFFFFF" d="M119.418,173.751c0.798,0,1.578-0.205,2.246-0.584l5.014-2.133l5.348,2.258
	c0.559,0.285,1.264,0.459,1.969,0.459c2.193,0,3.996-1.516,3.996-3.395c0-0.348-0.057-0.68-0.188-1.012v-0.014l-0.983-4.566
	l4.046-3.459c0.912-0.568,1.506-1.564,1.506-2.637c0-1.518-1.149-2.795-2.787-3.238v-0.064l-6.648-0.742l-2.506-4.392
	c-0.5-1.295-2.021-2.227-3.73-2.227c-1.637,0-3.141,0.869-3.719,2.18l-2.578,4.438l-6.278,0.742c-1.8,0.348-3.079,1.705-3.079,3.303
	c0,0.854,0.369,1.658,1.037,2.289v0.018l4.439,3.807l-1.188,5.668l0.075,0.062C115.521,172.316,117.262,173.751,119.418,173.751z
	 M126.678,169.283l-5.957,2.543c-1.711,0.963-3.438-0.08-3.438-1.438l0.02-0.254l1.224-5.875l-4.309-3.695l0.038-0.064l-0.611-0.457
	c-0.465-0.346-0.744-0.852-0.744-1.373c0-0.885,0.744-1.645,1.782-1.787l0.26-0.029l6.686-0.76l3.045-5.261
	c0.354-0.773,1.135-1.23,2.026-1.23c0.91,0,1.725,0.504,2.021,1.23l2.992,5.261l6.869,0.789c1.097,0.096,1.931,0.869,1.931,1.803
	c0,0.568-0.314,1.104-0.854,1.453l-4.829,4.121l1.006,4.66l-0.167,0.031l0.352,0.822c0.095,0.205,0.128,0.41,0.128,0.615
	c0,0.994-0.965,1.818-2.135,1.818c-0.391,0-0.76-0.082-1.096-0.256L126.678,169.283z"/>
<path fill="#FFFFFF" stroke="#00AEEF" stroke-miterlimit="10" d="M169.984,148.795v21.388l5.738,2.432
	c0.445,0.221,0.983,0.361,1.56,0.361c1.689,0,3.064-1.166,3.064-2.604c0-0.301-0.075-0.6-0.186-0.887l-1.06-4.973l4.383-3.76
	c0.743-0.475,1.226-1.23,1.226-2.084c0-1.344-1.207-2.465-2.768-2.592l-6.332-0.711l-2.729-4.784
	C172.473,149.553,171.34,148.795,169.984,148.795z"/>
<path fill="#FFFFFF" d="M162.688,173.767c0.777,0,1.559-0.205,2.246-0.584l5.014-2.131l5.367,2.273
	c0.557,0.285,1.262,0.441,1.968,0.441c2.21,0,3.992-1.516,3.992-3.395c0-0.363-0.073-0.742-0.241-1.137l-0.947-4.453l4.048-3.461
	c0.893-0.568,1.486-1.58,1.486-2.637c0-1.754-1.56-3.207-3.602-3.381l-5.813-0.648l-2.507-4.407
	c-0.501-1.295-2.024-2.227-3.732-2.227c-1.633,0-3.138,0.869-3.734,2.18l-2.58,4.454l-5.998,0.695
	c-1.969,0.27-3.358,1.674-3.358,3.35c0,0.852,0.369,1.658,1.037,2.307l0,0l0.261,0.252l4.161,3.57l-1.17,5.621l0.073,0.062
	C158.749,172.285,160.513,173.767,162.688,173.767z M169.984,169.298l-0.445,0.156l-5.535,2.355c-1.818,1.01-3.453-0.08-3.453-1.438
	c0.018-0.08,0.018-0.158,0.018-0.221v-0.031l1.228-5.877l-4.867-4.186c-0.481-0.361-0.741-0.867-0.741-1.389
	c0-0.885,0.741-1.629,1.781-1.787l6.946-0.789l3.045-5.276c0.353-0.758,1.15-1.232,2.024-1.232c0.909,0,1.726,0.506,2.024,1.248
	l2.989,5.261l6.833,0.773c1.115,0.096,1.969,0.885,1.969,1.803c0,0.584-0.315,1.105-0.854,1.453l-4.829,4.121l1.152,5.387
	c0.129,0.348,0.167,0.553,0.167,0.742c0,0.994-0.966,1.816-2.136,1.816c-0.483,0-0.854-0.143-1.096-0.252L169.984,169.298z"/>
<polygon fill="#FFFFFF" points="170.912,170.246 170.912,148.133 169.057,148.133 169.057,170.183 "/>
<ellipse transform="matrix(0.9575 0.2884 -0.2884 0.9575 70.4387 -29.2564)" fill-rule="evenodd" clip-rule="evenodd" fill="#F15B26" cx="134.501" cy="224.406" rx="13.794" ry="27.892"/>
</svg>
