<?xml version="1.0" encoding="utf-8"?>
<!-- Generator: Adobe Illustrator 16.0.0, SVG Export Plug-In . SVG Version: 6.00 Build 0)  -->
<!DOCTYPE svg PUBLIC "-//W3C//DTD SVG 1.1//EN" "http://www.w3.org/Graphics/SVG/1.1/DTD/svg11.dtd">
<svg version="1.1" id="Layer_1" xmlns="http://www.w3.org/2000/svg" xmlns:xlink="http://www.w3.org/1999/xlink" x="0px" y="0px"
	 width="271.085px" height="246.025px" viewBox="0 0 271.085 246.025" enable-background="new 0 0 271.085 246.025"
	 xml:space="preserve">
<circle fill="#F15B26" cx="144.969" cy="129.427" r="80.792"/>
<path fill="#FFFFFF" d="M96.377,188.755c-4.579-0.004-8.28-3.707-8.283-8.281l0,0v-86.13c0.003-4.576,3.704-8.277,8.283-8.281l0,0
	h44.408L128.95,97.895H99.925v79.028l75.546,0.002v-15.889l11.833-11.832l-0.002,31.27c-0.003,4.572-3.705,8.277-8.28,8.281l0,0
	H96.377L96.377,188.755z"/>
<path fill="#FFFFFF" d="M175.08,85.02V70.165l38.451,38.451l-38.614,38.617v-15.447c0,0-19.175-3.805-38.892,8.488
	c-10.791,6.684-18.076,15.477-22.565,22.404c0,0,1.459-23.992,15.262-45.846C145.978,89.508,175.08,85.02,175.08,85.02z"/>
</svg>
